<svg xmlns="http://www.w3.org/2000/svg" width="120" height="120" viewBox="0 0 120 120"><defs><style>.a{fill:#89b55d;}.b{fill:#023049;}.c{fill:none;}</style></defs><path class="a" d="M215.6,493v32.71h71.889V493Zm68.933,17.111a.556.556,0,1,1-1.111,0V497H270.311a.556.556,0,1,1,0-1.111h13.667a.556.556,0,0,1,.556.556Z" transform="translate(-191.645 -438.223)"/><path class="b" d="M471.778,701.67H453.556a.556.556,0,0,0,0,1.111h18.222a.556.556,0,0,0,0-1.111Z" transform="translate(-402.667 -623.707)"/><path class="b" d="M259.584,344H180.736a.556.556,0,0,0-.556.556v52.381a.556.556,0,0,0,.556.556h6.458v6.758a.556.556,0,0,0,.556.556h14.428a.556.556,0,0,0,.556-.556v-6.758h34.957v6.758a.556.556,0,0,0,.556.556h14.222a.556.556,0,0,0,.556-.556v-6.758h6.556a.556.556,0,0,0,.556-.556V344.556a.556.556,0,0,0-.549-.556Zm-57.963,59.694H188.3v-6.2h13.317Zm50.294,0H238.8v-6.2h13.111Zm7.111-7.313H181.291V357.517h77.738Zm0-39.976H181.291V345.111h77.738Z" transform="translate(-160.16 -305.777)"/><path class="b" d="M455.181,383.857a3.123,3.123,0,1,0-3.123-3.123A3.123,3.123,0,0,0,455.181,383.857Zm0-5.134a2.012,2.012,0,1,1-2.012,2.012A2.012,2.012,0,0,1,455.181,378.722Zm8.509,5.134a3.123,3.123,0,1,0-3.123-3.123A3.123,3.123,0,0,0,463.69,383.857Zm0-5.134a2.012,2.012,0,1,1-2.012,2.012,2.012,2.012,0,0,1,2.012-2.012Zm-42.444,33.931h25.4a.556.556,0,0,0,0-1.111h-25.4a.556.556,0,0,0,0,1.111Zm6.2-7.921a3.05,3.05,0,0,0,.073,3.473.556.556,0,1,0,.9-.653,1.938,1.938,0,0,1-.047-2.2l.152-.231a3,3,0,0,0-.111-3.427.556.556,0,1,0-.889.667,1.889,1.889,0,0,1,.069,2.156Zm11.946,0a3.05,3.05,0,0,0,.072,3.473.556.556,0,0,0,.9-.653,1.936,1.936,0,0,1-.047-2.2l.152-.231a3.007,3.007,0,0,0-.111-3.427.556.556,0,1,0-.889.667,1.889,1.889,0,0,1,.069,2.156Zm-6-1.094a4.012,4.012,0,0,0,.1,4.571.556.556,0,0,0,.9-.653,2.9,2.9,0,0,1-.07-3.3l.21-.319a3.949,3.949,0,0,0-.139-4.507.556.556,0,0,0-.889.667,2.835,2.835,0,0,1,.1,3.232Z" transform="translate(-373.946 -335.652)"/><path class="c" d="M0,0H120V120H0Z"/></svg>