<svg xmlns="http://www.w3.org/2000/svg" width="120" height="120" viewBox="0 0 120 120"><defs><style>.a{fill:#89b55d;}.b{fill:#023049;}.c{fill:none;}</style></defs><circle class="a" cx="13.056" cy="13.056" r="13.056" transform="translate(18.973 69.305)"/><circle class="a" cx="13.056" cy="13.056" r="13.056" transform="translate(67.194 69.305)"/><path class="b" d="M226.937,303.75h-24a.556.556,0,0,0-.556.556V327.75l-7.278-.05V312.589a.556.556,0,0,0-.3-.493l-11.727-6.061a.556.556,0,1,0-.509.987l11.421,5.9V327.7l-30.444.111v-7.333a.556.556,0,0,0-.556-.556h-8.333a.556.556,0,1,0,0,1.111h7.778v7.242l-2.749,8.132a16.667,16.667,0,1,0,11.85,16.514h6.9a.556.556,0,0,0,.462-.247l15.494-23.189,2.633,7.454a16.265,16.265,0,1,0,1.053-.373l-2.739-7.756,31.542.222a.819.819,0,0,0,.614-.722v-24a.556.556,0,0,0-.557-.561Zm-72.056,64.167a15.556,15.556,0,1,1,4.451-30.461l-4.978,14.728a.556.556,0,0,0,.527.733h15.544A15.573,15.573,0,0,1,154.881,367.917Zm5.5-30.1a15.583,15.583,0,0,1,10.041,13.993h-14.77Zm17.756,13.993h-6.6a16.69,16.69,0,0,0-10.8-15.047l2.651-7.843L193.5,328.8Zm24.908-14.889a15.5,15.5,0,1,1-5.651,1.067l5.183,14.673a.556.556,0,1,0,1.047-.37l-5.182-14.672A15.453,15.453,0,0,1,203.048,336.917Zm23.333-9.167H203.492V304.861h22.889Z" transform="translate(-122.854 -270)"/><path class="c" d="M0,0H120V120H0Z"/><path class="a" d="M741.75,329.75v19.333h19.333V329.75Zm17,16.444a.556.556,0,0,1-.556.556h-9a.556.556,0,1,1,0-1.111h8.444v-8.444a.556.556,0,1,1,1.111,0Z" transform="translate(-659.333 -293.111)"/></svg>