<svg xmlns="http://www.w3.org/2000/svg" width="23.595" height="26.026" viewBox="0 0 23.595 26.026"><defs><style>.svg-package{fill:none;stroke:#89b55d;stroke-linecap:round;stroke-linejoin:round;stroke-width:2px;}</style></defs><g transform="translate(-1.956 -0.966)"><line class="svg-package" x1="10.754" y1="6.201" transform="translate(8.377 4.64)"/><path class="svg-package" d="M24.507,18.727V9.169A2.39,2.39,0,0,0,23.312,7.1L14.948,2.322a2.39,2.39,0,0,0-2.39,0L4.195,7.1A2.39,2.39,0,0,0,3,9.169v9.559a2.39,2.39,0,0,0,1.195,2.067l8.364,4.779a2.39,2.39,0,0,0,2.39,0l8.364-4.779A2.39,2.39,0,0,0,24.507,18.727Z" transform="translate(0 0)"/><path class="svg-package" d="M3.27,6.96,13.7,12.994,24.132,6.96" transform="translate(0.053 0.966)"/><line class="svg-package" y1="12.044" transform="translate(13.754 13.948)"/></g></svg>
