<svg xmlns="http://www.w3.org/2000/svg" width="24" height="24" viewBox="0 0 24 24"><defs><style>.a-icon-nut{fill:#fff;stroke:#152018;}.b-icon-nut{fill:#152018;}.c-icon-nut{fill:none;}.d-icon-nut{stroke:none;}</style></defs><g transform="translate(-124 -213)"><g class="a-icon-nut" transform="translate(124 213)"><circle class="d-icon-nut" cx="12" cy="12" r="12"/><circle class="c-icon-nut" cx="12" cy="12" r="11.5"/></g><g transform="translate(127 216)"><path class="b-icon-nut" d="M10.9,4.151a2.907,2.907,0,0,0-.513,1.6.4.4,0,0,0,.787,0,2.3,2.3,0,0,1,.373-1.2.327.327,0,0,0-.1-.488A.426.426,0,0,0,11.22,4,.41.41,0,0,0,10.9,4.151ZM6,8.713a1.335,1.335,0,0,0,.391.9h8.673a1.337,1.337,0,0,0,.391-.9c0-1.247-2.116-2.258-4.728-2.258S6,7.466,6,8.713Zm.788,1.623h7.977c0,3.329-1.785,6.028-3.989,6.028S6.788,13.665,6.788,10.336Zm2.095,3.823A.411.411,0,0,0,9.2,14.3a.425.425,0,0,0,.232-.068.327.327,0,0,0,.086-.49,4.243,4.243,0,0,1-.909-2.261.383.383,0,0,0-.407-.338.371.371,0,0,0-.381.362A4.838,4.838,0,0,0,8.883,14.159Z" transform="translate(-1.364 -0.818)"/><g transform="translate(1 1)"><rect class="c-icon-nut" width="16" height="16"/></g></g></g></svg>
