<svg xmlns="http://www.w3.org/2000/svg" width="24" height="24" viewBox="0 0 24 24"><defs><style>.a-icon-leaves{fill:#fff;stroke:#152018;}.b{fill:#152018;}.c-icon-leaves{fill:none;}.d-icon-leaves{stroke:none;}</style></defs><g transform="translate(-69 -213)"><g class="a-icon-leaves" transform="translate(69 213)"><circle class="d-icon-leaves" cx="12" cy="12" r="12"/><circle class="c-icon-leaves" cx="12" cy="12" r="11.5"/></g><g transform="translate(72 216)"><g transform="translate(1 1)"><path class="b-icon-leaves" d="M10.988,8.094s.006.075.008.208v.173A4.8,4.8,0,0,1,5.8,13.54s-.006-.075-.008-.208v-.11A4.809,4.809,0,0,1,10.988,8.094Zm-10.979,0C5.66,8.094,5.2,13.54,5.2,13.54A4.81,4.81,0,0,1,0,8.413V8.3C0,8.169.009,8.094.009,8.094ZM9.792,4.417s.359,4.259-4.06,4.259c0,0-.005-.06-.007-.166v-.1A3.758,3.758,0,0,1,9.792,4.417Zm-8.587,0c4.419,0,4.06,4.259,4.06,4.259C.846,8.676,1.205,4.417,1.205,4.417ZM5.431.617a2.93,2.93,0,0,1,.106,4.432l-.07.07-.037.035A2.975,2.975,0,0,1,5.431.617Z" transform="translate(2.407 1.286)"/><g transform="translate(0 0)"><rect class="c-icon-leaves" width="16" height="16"/></g></g></g></g></svg>
