<svg xmlns="http://www.w3.org/2000/svg" width="24" height="24" viewBox="0 0 24 24"><defs><style>.a-icon-bottle{fill:#fff;stroke:#152018;}.b{opacity:0;}.c-icon-bottle{fill:#444;}.d-icon-bottle{stroke:none;}.e-icon-bottle{fill:none;}</style></defs><g transform="translate(-96 -213)"><g class="a-icon-bottle" transform="translate(96 213)"><circle class="d-icon-bottle" cx="12" cy="12" r="12"/><circle class="e-icon-bottle" cx="12" cy="12" r="11.5"/></g><g transform="translate(99 216)"><path d="M10.909,3H9.835a.6.6,0,0,0-.522.66c0,.54.256.648.256.648C8.1,7.09,8,7.438,8,8.541v5.751a1.776,1.776,0,0,0,1.742,1.8h2.334a1.776,1.776,0,0,0,1.742-1.8V8.541c0-1.1-.1-1.451-1.568-4.234,0,0,.256-.108.256-.648A.6.6,0,0,0,11.984,3Z" transform="translate(-1.909 -0.545)"/><g class="b-icon-bottle" transform="translate(1 1)"><rect class="c-icon-bottle" width="16" height="16"/></g></g></g></svg>
