<svg xmlns="http://www.w3.org/2000/svg" width="34.161" height="34.154" viewBox="0 0 34.161 34.154"><defs><style>.a-icon-insta{fill:#38493d;}</style></defs><path class="a-icon-insta" d="M17.079,10.558a8.757,8.757,0,1,0,8.757,8.757A8.743,8.743,0,0,0,17.079,10.558Zm0,14.449a5.693,5.693,0,1,1,5.693-5.693,5.7,5.7,0,0,1-5.693,5.693ZM28.236,10.2a2.042,2.042,0,1,1-2.042-2.042A2.038,2.038,0,0,1,28.236,10.2Zm5.8,2.073c-.13-2.736-.754-5.159-2.759-7.156s-4.42-2.622-7.156-2.759c-2.82-.16-11.272-.16-14.091,0A10.159,10.159,0,0,0,2.874,5.109c-2,2-2.622,4.42-2.759,7.156-.16,2.82-.16,11.272,0,14.091.13,2.736.754,5.159,2.759,7.156a10.187,10.187,0,0,0,7.156,2.759c2.82.16,11.272.16,14.091,0,2.736-.13,5.159-.754,7.156-2.759s2.622-4.42,2.759-7.156c.16-2.82.16-11.264,0-14.084ZM30.393,29.382a5.764,5.764,0,0,1-3.247,3.247c-2.248.892-7.583.686-10.067.686s-7.827.2-10.067-.686a5.764,5.764,0,0,1-3.247-3.247c-.892-2.248-.686-7.583-.686-10.067s-.2-7.827.686-10.067A5.764,5.764,0,0,1,7.012,6c2.248-.892,7.583-.686,10.067-.686s7.827-.2,10.067.686a5.764,5.764,0,0,1,3.247,3.247c.892,2.248.686,7.583.686,10.067S31.285,27.141,30.393,29.382Z" transform="translate(0.005 -2.238)"/></svg>
