<svg xmlns="http://www.w3.org/2000/svg" width="156.666" height="16" viewBox="0 0 156.666 16"><defs><style>.a-icon-stars{fill:#38493d;}</style></defs><g transform="translate(-584 -2741.667)"><path class="a-icon-stars" d="M10,1.667l2.575,5.265,5.758.85-4.166,4.1.983,5.788L10,14.932,4.85,17.667l.983-5.788-4.166-4.1,5.758-.85Z" transform="translate(582.333 2740)"/><path class="a-icon-stars" d="M10,1.667l2.575,5.265,5.758.85-4.166,4.1.983,5.788L10,14.932,4.85,17.667l.983-5.788-4.166-4.1,5.758-.85Z" transform="translate(617.333 2740)"/><path class="a-icon-stars" d="M10,1.667l2.575,5.265,5.758.85-4.166,4.1.983,5.788L10,14.932,4.85,17.667l.983-5.788-4.166-4.1,5.758-.85Z" transform="translate(652.333 2740)"/><path class="a-icon-stars" d="M10,1.667l2.575,5.265,5.758.85-4.166,4.1.983,5.788L10,14.932,4.85,17.667l.983-5.788-4.166-4.1,5.758-.85Z" transform="translate(687.333 2740)"/><path class="a-icon-stars" d="M10,1.667l2.575,5.265,5.758.85-4.166,4.1.983,5.788L10,14.932,4.85,17.667l.983-5.788-4.166-4.1,5.758-.85Z" transform="translate(722.333 2740)"/></g></svg>
