<svg xmlns="http://www.w3.org/2000/svg" width="120" height="120" viewBox="0 0 120 120"><defs><style>.a{fill:#89b55d;}.b{fill:none;}.c{fill:#023049;}</style></defs><path class="a" d="M287.669,230.25l-32.629,6.444h32.667Zm10.995,32.083a26.138,26.138,0,0,0-26.139,26.139H324.8A26.139,26.139,0,0,0,298.663,262.333Zm12.977,8.151a.555.555,0,0,1-.778.144,21.61,21.61,0,0,0-30.923,7.038.556.556,0,1,1-.961-.556,22.734,22.734,0,0,1,32.518-7.4A.556.556,0,0,1,311.64,270.484Z" transform="translate(-226.702 -204.666)"/><path class="b" d="M0,0H120V120H0Z"/><path class="c" d="M195.867,259.91a.556.556,0,0,0-.556.556v5.25h-54.85V200.327H195.35v8.611a.556.556,0,0,0,1.111,0v-9.167a.556.556,0,0,0-.556-.556h-7.414l-.052-9.889a.556.556,0,0,0-.674-.54L139.856,199.22a.556.556,0,0,0-.506.556v66.5a.556.556,0,0,0,.556.556h55.961a.556.556,0,0,0,.556-.556v-5.81A.556.556,0,0,0,195.867,259.91Zm-8.487-60.694H145.1l42.232-9.194Z" transform="translate(-123.866 -167.799)"/><path class="c" d="M373.179,442.137H309.29a.556.556,0,0,0,0,1.111h63.889a.556.556,0,1,0,0-1.111Zm-52.82-23.32a29.248,29.248,0,0,0-8.624,20.82.556.556,0,1,0,1.111,0,28.333,28.333,0,0,1,56.667,0,.556.556,0,1,0,1.111,0,29.444,29.444,0,0,0-50.264-20.82Zm17.764-13.569a3.056,3.056,0,1,0,3.056-3.056A3.056,3.056,0,0,0,338.123,405.248Zm5,0a1.944,1.944,0,1,1-1.944-1.945A1.944,1.944,0,0,1,343.123,405.248Zm-37.437,3.526h1.089V400.31h-1.089l-.749,4.329-.061.459h-.048l-.061-.459-.738-4.329h-1.16v8.463h.822v-4.74l-.012-.459h.048l.073.459.568,3.387H305l.58-3.387.073-.459h.048l-.012.459Zm6.034-7.714v-.749h-2.286v8.463h2.286v-.761h-1.2v-3.434h1.2v-.761h-1.2v-2.758Zm4.389,3.761-.967-4.51h-.992v8.463h.762v-4.208l-.037-1.04h.049l.146.75.967,4.5h.992V400.31h-.762v4.22l.036,1.039h-.048Zm3.531-4.51v6.722c0,1.258.4,1.8,1.4,1.8h.036c1.064,0,1.4-.544,1.4-1.8V400.31h-.821v6.88c0,.6-.121.87-.444.87h-.037c-.327,0-.444-.266-.444-.87v-6.88Z" transform="translate(-269.218 -355.832)"/></svg>